# xmcd
# 
# Track frame offsets:
#     150
#     22300
#     43636
#     55901
#     75009
#     94392
#     109489
#     123288
#     145081
#     160780
#     174987
#     195727
# 
# Disc length: 2873
# 
# Revision: 0
# Processed by: cddbd v1.5.2PL0 Copyright (c) Steve Scherf et al.
# Submitted via: fre:ac v1.1beta1pre2
# 
DISCID=9b0b370c
DTITLE=THE MOONLIGHT FLITTERS - OUTLAW FOLK
DYEAR=2011
DGENRE=Country
TTITLE0=BLACK JACK'S DEAD
TTITLE1=THE LAND OF MILK AND HONEY
TTITLE2=KATARINA
TTITLE3=DRINKING FOR A LIVING
TTITLE4=BURLESQUE BLUES
TTITLE5=SOMEONE ELSE'S MONEY
TTITLE6=JA FINK
TTITLE7=BETTER THINGS TO DO
TTITLE8=TALKING LIKE A FOOL
TTITLE9=MARTHA GOODBODY_42
TTITLE10=TOUCH THE GROUND
TTITLE11=ALL THE TIME I LOVED YOU
EXTD=
EXTT0=
EXTT1=
EXTT2=
EXTT3=
EXTT4=
EXTT5=
EXTT6=
EXTT7=
EXTT8=
EXTT9=
EXTT10=
EXTT11=
PLAYORDER=
